<?xml version="1.0" encoding="UTF-8"?>
<svg version="1.1" xmlns="http://www.w3.org/2000/svg" width="512" height="512">
<path d="M0 0 C1.62121155 -0.00573832 1.62121155 -0.00573832 3.27517486 -0.01159257 C6.8736655 -0.02185853 10.47199467 -0.01794257 14.07049561 -0.01396179 C16.6600611 -0.01831185 19.24962531 -0.02349597 21.83918762 -0.02944946 C28.12977504 -0.04216132 34.4203197 -0.04399449 40.7109178 -0.0416492 C45.82831759 -0.03986165 50.94570447 -0.04162502 56.06310272 -0.04587364 C56.79317643 -0.04646883 57.52325014 -0.04706402 58.27544729 -0.04767724 C59.75891672 -0.04888908 61.24238614 -0.05010322 62.72585556 -0.05131962 C76.62060927 -0.06218198 90.51533868 -0.06003907 104.41009375 -0.05393478 C117.09705547 -0.04876885 129.78394034 -0.06001482 142.47088686 -0.07903299 C155.52292153 -0.09844719 168.57491991 -0.106661 181.6269691 -0.10290974 C188.94458849 -0.10100286 196.26214251 -0.10343486 203.57975006 -0.11762428 C210.46464588 -0.13084035 217.34938602 -0.12822955 224.23428154 -0.11521339 C226.75367472 -0.11285459 229.2730788 -0.1155572 231.79245949 -0.12383652 C253.75205064 -0.19076818 273.10979995 1.15161376 289.76947021 17.00093079 C297.245811 24.47091954 301.72201361 32.62633558 305.83123779 42.26069641 C306.49232267 43.59680607 307.15810963 44.93061344 307.83123779 46.26069641 C308.41806839 45.66387306 308.41806839 45.66387306 309.01675415 45.05499268 C313.1288079 40.87602692 317.25181325 36.70809076 321.38104248 32.5460968 C322.91604433 30.99610596 324.44833118 29.44342107 325.97772217 27.88789368 C351.32141578 2.1223566 351.32141578 2.1223566 371.43280029 1.16694641 C381.79179822 1.45271187 390.48360839 4.15414229 398.83123779 10.26069641 C399.45385498 10.70155579 400.07647217 11.14241516 400.71795654 11.59663391 C409.04972806 18.0748203 415.80968615 27.86234013 417.83123779 38.26069641 C419.36966272 52.7624117 416.98600472 64.6417461 407.83123779 76.26069641 C404.76784892 79.1195976 401.45005086 81.57143248 398.07806396 84.05342102 C396.07647398 85.57951155 394.07873778 87.11066619 392.08432007 88.64611816 C391.56212145 89.04741271 391.03992283 89.44870725 390.50190002 89.86216223 C379.29468442 98.51192518 368.58701548 107.78459417 358.01873779 117.19819641 C357.14240889 117.97776986 357.14240889 117.97776986 356.24837637 118.77309227 C326.72165936 145.15135482 304.96230223 170.47966195 302.3383739 211.28475308 C301.54749722 225.38716331 301.70726581 239.4078884 302.39373779 253.51069641 C302.43337379 254.32676534 302.47300979 255.14283427 302.51384687 255.98363256 C303.24850038 270.62882346 304.21529524 285.26274806 305.90969849 299.83059692 C308.25895691 320.23968222 307.7793424 334.09734919 294.72967529 350.97944641 C289.15413739 357.52036013 282.82131791 362.64331412 275.20233154 366.63960266 C272.36540319 368.579183 271.57167167 370.1615844 270.14373779 373.26069641 C262.49097941 388.01958758 249.43232584 397.19934707 233.83123779 402.26069641 C226.73485787 404.04364981 219.97216447 404.55092373 212.67593384 404.52812195 C211.05683898 404.53491862 211.05683898 404.53491862 209.40503514 404.54185259 C205.81121853 404.55444806 202.21755441 404.55287934 198.62371826 404.55122375 C196.03739732 404.55721208 193.45107817 404.56401833 190.86476135 404.57157898 C184.58152879 404.58813507 178.29833377 404.5936861 172.01508121 404.59480374 C166.90246538 404.5957569 161.78986185 404.59988057 156.67724991 404.60620499 C142.15293073 404.62380373 127.62864101 404.63304616 113.10431109 404.63154404 C111.93176676 404.63142417 111.93176676 404.63142417 110.73553467 404.63130188 C109.95287374 404.63122012 109.1702128 404.63113836 108.36383487 404.63105412 C95.69113687 404.63024191 83.01855792 404.64936679 70.34589432 404.67757861 C57.30514893 404.7063786 44.26446145 404.72011496 31.22368348 404.71839106 C23.91379967 404.71772955 16.60404063 404.72311641 9.29418564 404.74474716 C2.41417586 404.76497687 -4.46556748 404.7642129 -11.34559059 404.7497139 C-13.86092197 404.74763205 -16.37627004 404.75228915 -18.89157295 404.76443481 C-41.53270336 404.86662145 -61.03797553 402.69960963 -78.16876221 386.26069641 C-89.42298127 373.58848164 -94.48658933 359.78440923 -94.43618774 343.02200317 C-94.44298441 341.35329392 -94.44298441 341.35329392 -94.44991839 339.65087336 C-94.46255101 335.9332881 -94.46094272 332.21584955 -94.45928955 328.49824524 C-94.46527554 325.82853148 -94.472025 323.1588291 -94.47964478 320.48912048 C-94.49622328 313.99539693 -94.50175291 307.50170969 -94.50286953 301.00796673 C-94.5038216 295.72603639 -94.50793982 290.44411796 -94.51427078 285.16219139 C-94.53187541 270.16815889 -94.54111099 255.17415495 -94.53960983 240.18011204 C-94.53952992 239.37260088 -94.53945001 238.56508972 -94.53936768 237.73310852 C-94.53928591 236.92460474 -94.53920415 236.11610095 -94.53911991 235.28309705 C-94.53830747 222.18792266 -94.55743672 209.09286341 -94.58564441 195.99772231 C-94.61441732 182.53330032 -94.62818225 169.06893441 -94.62645686 155.60448092 C-94.62579443 148.05265512 -94.63122195 140.50095 -94.65281296 132.94915199 C-94.671083 126.51796638 -94.67532468 120.08695615 -94.66179411 113.65575574 C-94.65529326 110.37909263 -94.65724352 107.10283284 -94.67250061 103.82618904 C-94.78164733 78.75365896 -94.78164733 78.75365896 -90.16876221 68.26069641 C-89.81127081 67.36822614 -89.45377941 66.47575586 -89.08545494 65.55624104 C-84.88406808 55.43866422 -75.48450704 45.89538534 -66.16876221 40.26069641 C-64.62188721 39.67288391 -64.62188721 39.67288391 -63.04376221 39.07319641 C-59.07288267 36.56981583 -57.94449982 33.35633695 -55.85235596 29.23725891 C-48.35326635 15.97900768 -35.36937891 6.98420663 -21.16876221 2.26069641 C-14.07452288 0.45626537 -7.29742605 -0.02778989 0 0 Z " fill="#F6E4FE" transform="translate(94.16876220703125,53.73930358886719)"/>
<path d="M0 0 C0.81597656 0.61746094 1.63195312 1.23492187 2.47265625 1.87109375 C10.16745534 8.35280241 16.14818491 17.97050192 17.21875 28.06201172 C18.19980769 42.1677818 15.48149741 52.58160704 7 64 C3.92547699 67.47578426 0.65542496 70.73510117 -2.64208984 73.99853516 C-3.60598838 74.96322643 -4.5692317 75.92857275 -5.53187561 76.89451599 C-8.12645177 79.49418574 -10.73018131 82.08450086 -13.33589125 84.67300463 C-16.07456457 87.39652993 -18.80502149 90.12827022 -21.53652954 92.85897827 C-26.12286021 97.44162737 -30.71476737 102.01862463 -35.31054688 106.59179688 C-41.19080036 112.44318144 -47.06176774 118.30379154 -52.92983055 124.16739845 C-57.99897829 129.23255073 -63.07237075 134.2934454 -68.14644289 139.35366392 C-69.7657525 140.96889685 -71.38449199 142.58469947 -73.00315475 144.2005806 C-75.55672535 146.74921588 -78.11294709 149.29516444 -80.67115593 151.83914375 C-82.04523213 153.20662364 -83.41697446 154.57644742 -84.78862 155.94636536 C-89.09265848 160.22098224 -93.46598205 164.32816776 -98.0629158 168.2845726 C-101.58504116 171.40366796 -104.8664826 174.7619548 -108.17260742 178.10668945 C-108.94602982 178.8847847 -109.71945221 179.66287994 -110.51631165 180.46455383 C-112.18151001 182.14018823 -113.84560335 183.81692138 -115.50868797 185.4946537 C-118.14136464 188.14947914 -120.7780997 190.80020973 -123.41609192 193.44975281 C-130.91115437 200.9783041 -138.40205721 208.51094671 -145.88256836 216.05395508 C-150.46916506 220.67877676 -155.06364387 225.29568458 -159.66256142 229.90825462 C-161.41124245 231.6649925 -163.15714159 233.42450404 -164.90019798 235.18682289 C-167.33183115 237.64487946 -169.77255774 240.09354947 -172.21557617 242.5402832 C-172.93309052 243.27015442 -173.65060486 244.00002563 -174.38986206 244.75201416 C-175.39252861 245.75066246 -175.39252861 245.75066246 -176.41545105 246.76948547 C-176.99039905 247.34849767 -177.56534704 247.92750986 -178.1577177 248.52406788 C-181.59801489 251.28023893 -185.37632302 252.21810561 -189.67578125 252.77783203 C-190.57441895 252.89780548 -191.47305664 253.01777893 -192.39892578 253.14138794 C-193.36040527 253.26230804 -194.32188477 253.38322815 -195.3125 253.5078125 C-196.31780762 253.63815887 -197.32311523 253.76850525 -198.35888672 253.90280151 C-200.4867136 254.17666819 -202.61498421 254.44710615 -204.74365234 254.71435547 C-207.96212931 255.12022428 -211.17827655 255.54176926 -214.39453125 255.96484375 C-242.55999016 259.60158655 -242.55999016 259.60158655 -247.70703125 256.22314453 C-250.37567207 253.63576769 -251.73964161 251.77183952 -252.28100586 248.08764648 C-252.26555681 239.00051329 -250.81604207 230.04349744 -249.5625 221.0625 C-249.2148539 218.53898124 -248.86915981 216.01522031 -248.5262146 213.49105835 C-248.30444182 211.86430016 -248.07924579 210.23800469 -247.85049438 208.61221313 C-247.26270978 204.35262321 -246.88781835 200.171497 -246.71484375 195.87109375 C-245.58826879 184.20078941 -233.96789748 175.56836157 -226.11938477 167.79467773 C-224.70065128 166.37843078 -223.28258844 164.96151174 -221.86514282 163.54397583 C-218.8232016 160.5047303 -215.7765838 157.47028196 -212.72616768 154.43954277 C-207.89822984 149.64274434 -203.0807966 144.83548681 -198.26463318 140.02687073 C-190.64328111 132.41998451 -183.01474047 124.82035319 -175.38320249 117.22368723 C-161.721222 103.62367735 -148.0713996 90.01147002 -134.42437595 76.39645344 C-129.63906656 71.62294075 -124.85059495 66.85262961 -120.05941594 62.0850085 C-117.07484696 59.11431755 -114.09230477 56.14159753 -111.11020279 53.16843033 C-109.73208509 51.79535898 -108.35308754 50.42317004 -106.97312355 49.05195427 C-97.88945406 40.07481285 -97.88945406 40.07481285 -89.35182571 30.58399391 C-86.89138362 27.70098521 -84.21136435 25.02904862 -81.54296875 22.33984375 C-80.66116692 21.44949181 -80.66116692 21.44949181 -79.7615509 20.54115295 C-78.52852785 19.29877186 -77.29411419 18.05776943 -76.05834961 16.81811523 C-74.19501774 14.94505698 -72.34265662 13.06157441 -70.49023438 11.17773438 C-50.759005 -8.73227513 -24.43931194 -20.62389194 0 0 Z " fill="#B97CFE" transform="translate(495,66)"/>
<path d="M0 0 C1.38518678 2.77037357 0.56456961 3.97009213 -0.375 6.875 C-1.87280113 11.56437737 -3.1231303 15.65373038 -3.13422108 20.60451221 C-3.13867892 21.52980915 -3.14313676 22.45510608 -3.14772969 23.40844232 C-3.14754533 24.4215514 -3.14736097 25.43466049 -3.14717102 26.47846985 C-3.15084771 27.55752899 -3.1545244 28.63658813 -3.1583125 29.74834603 C-3.16935642 33.3769132 -3.17319446 37.00545174 -3.17700195 40.6340332 C-3.18326625 43.2309427 -3.18991302 45.8278513 -3.19691467 48.42475891 C-3.2166683 56.22893986 -3.22674597 64.03312209 -3.23564246 71.83732179 C-3.24002901 75.51683036 -3.24539504 79.19633751 -3.25063133 82.87584496 C-3.26764597 95.11643455 -3.28213704 107.35702327 -3.28938007 119.59762287 C-3.29128984 122.77349664 -3.29321018 125.9493704 -3.29516602 129.12524414 C-3.29564976 129.91455101 -3.2961335 130.70385787 -3.2966319 131.51708313 C-3.3049205 144.28459665 -3.33023653 157.05201611 -3.36274669 169.81948862 C-3.3958882 182.94252357 -3.41383541 196.06551085 -3.41702431 209.18858784 C-3.41918336 216.5505161 -3.42784223 223.9123074 -3.45348549 231.27419472 C-3.47758037 238.20745992 -3.4809738 245.14047583 -3.47072411 252.07377434 C-3.47023012 254.61048832 -3.47650981 257.14721464 -3.49028015 259.6838913 C-3.60623813 282.32260681 -1.32202477 301.36060556 15.21484375 318.49609375 C32.23049358 333.79347319 50.59395057 334.738844 72.37353516 334.63110352 C75.02460107 334.63624895 77.6755974 334.64334793 80.3266449 334.65278625 C86.74798681 334.6710585 93.1690222 334.66272145 99.59035422 334.64469803 C104.81301853 334.63061102 110.03560022 334.62679225 115.25828171 334.6301403 C116.37778743 334.63085647 116.37778743 334.63085647 117.51990943 334.6315871 C119.03655894 334.63261353 120.55320842 334.6336689 122.06985788 334.63475286 C135.44702348 334.64329853 148.82404206 334.62671323 162.20117188 334.59692383 C175.15403413 334.56808001 188.10668474 334.56101114 201.05957031 334.57641602 C215.19940398 334.59320974 229.33913742 334.59718103 243.47897375 334.57970566 C244.98909909 334.57786145 246.49922445 334.57602673 248.00934982 334.57420158 C248.75216963 334.57328949 249.49498944 334.5723774 250.26031894 334.57143768 C255.47219431 334.56585285 260.68402042 334.56912008 265.8958931 334.57574654 C272.25374297 334.58350991 278.61138521 334.57661946 284.96919347 334.5515715 C288.20740566 334.53914679 291.44523292 334.53501976 294.68346596 334.54411316 C311.56807583 334.83690883 311.56807583 334.83690883 327.78137779 330.75858974 C330 330 330 330 333 331 C325.20039166 347.39185981 313.74262702 357.00919696 297.21484375 363.95703125 C289.12376591 366.58196173 281.31243161 367.29388845 272.84469604 367.26742554 C271.22560119 367.27422221 271.22560119 367.27422221 269.57379735 367.28115618 C265.97998074 367.29375165 262.38631662 367.29218293 258.79248047 367.29052734 C256.20615953 367.29651567 253.61984038 367.30332192 251.03352356 367.31088257 C244.750291 367.32743866 238.46709598 367.33298969 232.18384342 367.33410732 C227.07122759 367.33506049 221.95862405 367.33918416 216.84601212 367.34550858 C202.32169294 367.36310732 187.79740322 367.37234975 173.2730733 367.37084763 C172.10052897 367.37072776 172.10052897 367.37072776 170.90429688 367.37060547 C170.12163594 367.37052371 169.33897501 367.37044195 168.53259708 367.37035771 C155.85989908 367.3695455 143.18732012 367.38867037 130.51465653 367.4168822 C117.47391113 367.44568219 104.43322366 367.45941855 91.39244568 367.45769465 C84.08256188 367.45703313 76.77280283 367.46242 69.46294785 367.48405075 C62.58293806 367.50428046 55.70319473 367.50351649 48.82317162 367.48901749 C46.30784024 367.48693563 43.79249217 367.49159274 41.27718925 367.5037384 C18.63605885 367.60592504 -0.86921333 365.43891322 -18 349 C-29.25421906 336.32778523 -34.31782713 322.52371282 -34.26742554 305.76130676 C-34.27422221 304.09259751 -34.27422221 304.09259751 -34.28115618 302.39017695 C-34.2937888 298.67259169 -34.29218051 294.95515314 -34.29052734 291.23754883 C-34.29651334 288.56783507 -34.30326279 285.89813269 -34.31088257 283.22842407 C-34.32746108 276.73470052 -34.33299071 270.24101328 -34.33410732 263.74727032 C-34.33505939 258.46533997 -34.33917762 253.18342155 -34.34550858 247.90149498 C-34.3631132 232.90746248 -34.37234879 217.91345854 -34.37084763 202.91941563 C-34.37076772 202.11190447 -34.3706878 201.30439331 -34.37060547 200.47241211 C-34.37052371 199.66390832 -34.37044195 198.85540454 -34.37035771 198.02240064 C-34.36954526 184.92722625 -34.38867451 171.832167 -34.4168822 158.73702589 C-34.44565512 145.27260391 -34.45942004 131.808238 -34.45769465 118.34378451 C-34.45703222 110.79195871 -34.46245974 103.24025359 -34.48405075 95.68845558 C-34.50232079 89.25726997 -34.50656247 82.82625974 -34.4930319 76.39505932 C-34.48653106 73.11839622 -34.48848131 69.84213642 -34.5037384 66.56549263 C-34.61288513 41.49296255 -34.61288513 41.49296255 -30 31 C-29.4637629 29.66129459 -29.4637629 29.66129459 -28.91669273 28.29554462 C-23.81283295 16.00467613 -11.97341824 5.38803821 0 0 Z " fill="#B97CFE" transform="translate(34,91)"/>
</svg>
